<svg width="234" height="104" viewBox="0 0 234 104" fill="none" xmlns="http://www.w3.org/2000/svg">
<path d="M16.8906 4.015L47 0L35.25 24.82L10.2812 36.5L35.25 48.18L47 73L16.8906 71.905L0 36.5L16.8906 4.015Z" fill="#D9D9D9"/>
<path d="M65.1094 35.015L35 31L46.75 55.82L71.7188 67.5L46.75 79.18L35 104L65.1094 102.905L82 67.5L65.1094 35.015Z" fill="#D9D9D9"/>
<path d="M125.562 58.5625C125.562 57.0833 124.917 55.8542 123.625 54.875C122.312 53.9167 120.688 53.2292 118.75 52.8125C116.708 52.375 114.594 51.9062 112.406 51.4062C110.073 50.8646 107.958 50.3021 106.062 49.7188C104.083 49.1146 102.469 48.0938 101.219 46.6562C99.9062 45.1771 99.25 43.3646 99.25 41.2188C99.25 36.6146 101.073 33.0208 104.719 30.4375C108.365 27.8542 113.115 26.5625 118.969 26.5625C123.615 26.5625 127.365 27.4688 130.219 29.2812C133.052 31.0938 134.469 33.625 134.469 36.875C134.469 37.7083 134.271 39.0521 133.875 40.9062H127.875C128.167 39.3854 128.312 38.3958 128.312 37.9375C128.312 34.0208 125.01 32.0625 118.406 32.0625C114.51 32.0625 111.385 32.7604 109.031 34.1562C106.656 35.5521 105.469 37.5 105.469 40C105.469 41.4792 106.125 42.7083 107.438 43.6875C108.667 44.625 110.281 45.3021 112.281 45.7188C114.323 46.1562 116.438 46.625 118.625 47.125C120.521 47.5625 122.635 48.1354 124.969 48.8438C126.885 49.4688 128.51 50.5208 129.844 52C131.135 53.4792 131.781 55.3021 131.781 57.4688C131.781 62.1354 129.885 65.8333 126.094 68.5625C122.302 71.2708 117.135 72.625 110.594 72.625C105.76 72.625 101.729 71.7083 98.5 69.875C95.25 68.0417 93.625 65.4688 93.625 62.1562C93.625 61.4688 93.9271 59.7604 94.5312 57.0312H100.531C100.01 59.3021 99.7604 60.8542 99.7812 61.6875C99.7812 63.5 100.833 64.8646 102.938 65.7812C105 66.6771 107.719 67.125 111.094 67.125C115.323 67.125 118.792 66.4375 121.5 65.0625C124.208 63.7292 125.562 61.5625 125.562 58.5625ZM139.062 58.8125C139.062 53.3958 141.021 48.9062 144.938 45.3438C148.854 41.7812 153.719 40 159.531 40C164.052 40 167.656 41.2812 170.344 43.8438C173.031 46.4062 174.375 49.7292 174.375 53.8125C174.375 59.2292 172.438 63.7188 168.562 67.2812C164.688 70.8438 159.802 72.625 153.906 72.625C149.385 72.625 145.781 71.3438 143.094 68.7812C140.406 66.2604 139.062 62.9375 139.062 58.8125ZM168.625 54.1562C168.625 51.4688 167.781 49.2917 166.094 47.625C164.385 45.9583 162.052 45.125 159.094 45.125C155.01 45.125 151.604 46.4271 148.875 49.0312C146.167 51.6146 144.812 54.7708 144.812 58.5C144.812 61.2083 145.656 63.3854 147.344 65.0312C149.052 66.6979 151.385 67.5312 154.344 67.5312C158.427 67.5312 161.833 66.2292 164.562 63.625C167.271 61.0417 168.625 57.8854 168.625 54.1562ZM203.094 40C204.344 40 205.448 40.125 206.406 40.375L206.812 40.4375L205.531 46.4688C204.448 46.0729 202.906 45.8542 200.906 45.8125C197.51 45.8125 194.635 46.8854 192.281 49.0312C189.885 51.1771 188.344 53.8646 187.656 57.0938L184.469 72H178.969L185.625 40.625H191.125L189.844 46.7188H190.156C190.302 46.5312 190.479 46.2917 190.688 46C190.979 45.625 191.479 45.0833 192.188 44.375C192.938 43.625 193.792 42.9375 194.75 42.3125C195.667 41.75 196.885 41.2188 198.406 40.7188C199.948 40.2396 201.51 40 203.094 40ZM232.562 45.625H220.969L217.969 59.8438C217.76 60.6979 217.656 61.6562 217.656 62.7188C217.656 66.1354 219.531 67.8438 223.281 67.8438C224.281 67.8438 225.271 67.7292 226.25 67.5C227.25 67.2708 227.99 67.0208 228.469 66.75L229.156 66.375L228.125 71.375C226.229 72.2292 224.062 72.6458 221.625 72.625C218.896 72.625 216.583 71.8333 214.688 70.25C212.771 68.6875 211.812 66.6458 211.812 64.125C211.812 63.3333 211.969 62.1354 212.281 60.5312L215.469 45.625H210.219L211.312 40.625H216.562L218.031 33.5938H223.531L222.062 40.625H233.656L232.562 45.625Z" fill="white"/>
</svg>
